<svg version="1.1" id="s9lOGO" xmlns="http://www.w3.org/2000/svg" xmlns:xlink="http://www.w3.org/1999/xlink" x="0px" y="0px"
	 width="427.539px" height="228.528px" viewBox="0 0 427.539 228.528" enable-background="new 0 0 427.539 228.528"
	 xml:space="preserve">
<g id="_x39_">
	<path fill="#F7941E" d="M336.404,78.745c-1.02-12.573-11.116-22.126-24.479-22.126H201.567c-7.884,0-15.415,3.326-21.086,8.631
		c-4.346,4.069-7.599,9.302-9.076,15.096l-8.301,71.726l-0.398,3.449c-0.672,5.803,3.571,10.551,9.425,10.551h112.188
		c4.754,0,9.166-3.131,11.02-7.417l-0.854,7.417l-0.981,8.5l-0.174,1.991c-0.025,0.272-0.072,0.54-0.148,0.795
		c-0.545,1.95-2.408,3.437-4.478,3.437H157.357l-5.968,29.805h146.293c13.559-1.915,25.244-13.388,26.867-27.134l4.515-38.198
		l1.096-9.285l6.138-51.945C336.51,82.229,336.54,80.457,336.404,78.745z M302.75,99.525l-0.292,1.741l-0.005,0.042l-0.659,3.925
		l-0.959,5.756v0.004l-2.426,14.514c-0.965,5.765-6.529,10.476-12.369,10.476h-79.197c-5.174,0-8.898-3.695-9.01-8.551v-0.051
		c-0.012-0.607,0.034-1.232,0.141-1.874l0.285-1.699V123.8l4.052-24.275c0.964-5.747,6.495-10.449,12.323-10.475h79.248
		c0.016,0,0.037,0,0.055,0.004c0.008-0.004,0.017,0,0.025,0c0.013-0.004,0.021,0,0.034,0c4.358,0.042,7.667,2.723,8.618,6.495
		c0.004,0,0.004,0,0,0.004c0.08,0.302,0.141,0.612,0.188,0.926c0.047,0.349,0.08,0.701,0.084,1.062v0.021
		C302.907,98.2,302.86,98.854,302.75,99.525z"/>
</g>
<g id="S_1_">
	<path fill="#F7941E" d="M101.65,165.934c2.736,1.088,3.773,2.852,3.88,4.229l-0.55,6.261c-0.2,2.329-2.28,4.229-4.62,4.229H3.46
		L0,210.744h122.82c5.84,0,11.17-4.75,11.84-10.54c0-0.01,0-0.01,0-0.01l6.19-53.8c0.67-5.811-3.46-8.7-9.4-10.55l-81.71-34.55
		c-2.982-1.354-4.08-1.91-3.88-4.23l0.55-6.27c0.2-2.32,2.28-4.23,4.62-4.23h96.9l3.46-30.09H28.56c-5.84,0-11.16,4.75-11.83,10.55
		l-6.19,53.81c-0.67,5.8,3.581,7.83,9.4,10.55L101.65,165.934z"/>
	<path fill="#F7941E" d="M24.07,148.753l0.879-2.553c1.064-3.095,4.469-4.754,7.563-3.689l64.326,26.606
		c0.809,0.278,2.418,0.884,2.692,1.646c0.338,0.942-0.245,3.891-0.245,3.891c-0.311,1.426-1.328,2.366-2.638,2.366h-21.71
		L27.76,156.317C24.666,155.252,23.003,151.848,24.07,148.753z"/>
	<path fill="#F7941E" d="M126.244,118.626l-0.879,2.553c-1.064,3.095-4.469,4.753-7.563,3.689L53.476,98.262
		c-0.809-0.278-2.418-0.884-2.692-1.646c-0.338-0.942,0.245-3.891,0.245-3.891c0.311-1.426,1.328-2.366,2.638-2.366h21.71
		l47.176,20.704C125.648,112.127,127.31,115.531,126.244,118.626z"/>
	<path fill-rule="evenodd" clip-rule="evenodd" fill="#F7941E" d="M107.635,56.252c2.137-4.897,3.939-9.555,6.169-14
		c2.605-5.194,8.992-7.085,14.099-4.504c4.91,2.481,7.1,8.591,4.899,13.756c-1.819,4.266-3.68,8.512-5.68,13.131
		C120.56,61.811,114.222,59.085,107.635,56.252z M116.431,45.684c-0.93,3.601,1.105,7.207,4.625,8.198
		c3.569,1.003,7.506-1.32,8.372-4.944c0.848-3.544-1.357-7.119-4.941-8.01C120.806,40.015,117.373,42.041,116.431,45.684z"/>
	<path fill-rule="evenodd" clip-rule="evenodd" fill="#F7941E" d="M46.186,208.877c-2.137,4.896-3.939,9.555-6.169,14
		c-2.605,5.193-8.992,7.085-14.099,4.504c-4.91-2.48-7.1-8.592-4.899-13.756c1.819-4.266,3.68-8.512,5.68-13.131
		C33.261,203.319,39.6,206.043,46.186,208.877z M37.39,219.446c0.93-3.602-1.105-7.207-4.625-8.198
		c-3.569-1.003-7.506,1.32-8.372,4.944c-0.848,3.544,1.357,7.118,4.941,8.01C33.015,225.115,36.448,223.088,37.39,219.446z"/>
</g>
<g id="parts_1_">
	<g>
		<path fill-rule="evenodd" clip-rule="evenodd" fill="#F7941E" d="M334.471,115.908c-6.569-6.316-12.823-12.329-19.416-18.666
			c5.378-6.138,10.611-12.112,16.172-18.458c7.068,6.773,13.894,13.314,21.052,20.174
			C346.314,104.637,340.552,110.12,334.471,115.908z"/>
		<path fill-rule="evenodd" clip-rule="evenodd" fill="#F7941E" d="M415.413,45.424c-2.826-2.687-5.261-4.983-7.674-7.304
			c-7.868-7.559-15.741-15.115-23.585-22.701c-2.104-2.034-2.074-2.27-0.103-4.512c0.766-0.871,1.578-1.704,2.416-2.505
			c2.045-1.958,2.509-1.978,4.556-0.012c8.203,7.878,16.387,15.779,24.579,23.669c1.589,1.531,3.212,3.026,4.766,4.591
			c1.544,1.555,1.593,2.247,0.121,3.813C419.002,42.045,417.387,43.507,415.413,45.424z"/>
		<path fill-rule="evenodd" clip-rule="evenodd" fill="#F7941E" d="M399.329,13.627c3.726-3.831,7.055-7.554,10.707-10.927
			c4.269-3.943,10.912-3.461,14.782,0.754c3.721,4.052,3.616,10.542-0.264,14.6c-3.206,3.35-6.444,6.669-9.943,10.287
			C409.464,23.385,404.494,18.6,399.329,13.627z M411.285,6.837c-2.14,3.042-1.506,7.134,1.438,9.301
			c2.986,2.197,7.489,1.41,9.577-1.675c2.042-3.019,1.238-7.141-1.802-9.238C417.377,3.073,413.45,3.76,411.285,6.837z"/>
		<path fill-rule="evenodd" clip-rule="evenodd" fill="#F7941E" d="M334.413,77.537c3.164-3.491,6.079-6.707,9.257-10.214
			c5.734,7.301,11.207,14.271,16.846,21.448c-2.495,2.417-4.777,4.629-7.186,6.962C346.97,89.615,340.893,83.77,334.413,77.537z"/>
		<path fill-rule="evenodd" clip-rule="evenodd" fill="#F7941E" d="M374.551,83.507c-0.389-0.452-0.864-0.964-1.295-1.513
			c-7.548-9.602-15.092-19.206-22.628-28.816c-0.502-0.639-1.056-1.278-1.379-2.008c-0.569-1.285-0.44-2.58,0.79-3.431
			c1.162-0.804,2.443-0.806,3.537,0.187c0.595,0.542,1.068,1.222,1.57,1.86c7.543,9.607,15.082,19.217,22.618,28.828
			c0.358,0.458,0.71,0.921,1.033,1.404c0.92,1.365,0.757,2.652-0.405,3.773C377.351,84.797,375.962,84.685,374.551,83.507z"/>
		<path fill-rule="evenodd" clip-rule="evenodd" fill="#F7941E" d="M392.505,64.987c-0.344-0.422-0.865-1.043-1.365-1.679
			c-7.54-9.596-15.079-19.193-22.614-28.792c-0.431-0.546-0.913-1.074-1.232-1.681c-0.643-1.224-0.776-2.528,0.379-3.499
			c1.209-1.015,2.57-1.034,3.792,0.075c0.511,0.464,0.947,1.019,1.376,1.565c7.617,9.683,15.23,19.369,22.839,29.059
			c0.429,0.547,0.889,1.087,1.213,1.695c0.693,1.299,0.439,2.518-0.653,3.462C395.103,66.175,393.892,66.002,392.505,64.987z"/>
		<path fill-rule="evenodd" clip-rule="evenodd" fill="#F7941E" d="M344.524,57.051c0.557,0.666,1.096,1.277,1.599,1.918
			c7.546,9.612,15.087,19.226,22.623,28.845c0.502,0.639,1.046,1.277,1.395,2c0.637,1.322,0.324,2.583-0.843,3.42
			c-1.146,0.823-2.432,0.756-3.542-0.186c-0.437-0.369-0.746-0.89-1.106-1.348c-7.695-9.789-15.393-19.576-23.079-29.374
			c-0.5-0.638-1.013-1.302-1.332-2.036c-0.517-1.186-0.251-2.326,0.76-3.152C342.135,56.208,343.361,56.355,344.524,57.051z"/>
		<path fill-rule="evenodd" clip-rule="evenodd" fill="#F7941E" d="M379.676,19.041c0.261,0.319,0.786,0.935,1.285,1.571
			c7.537,9.593,15.071,19.187,22.604,28.783c0.429,0.547,0.879,1.087,1.24,1.679c0.859,1.403,0.607,2.701-0.618,3.735
			c-1.177,0.991-2.405,0.718-3.476-0.209c-0.607-0.525-1.1-1.192-1.601-1.829c-7.476-9.493-14.948-18.991-22.407-28.497
			c-0.569-0.726-1.382-1.484-1.48-2.302c-0.122-1.012,0.082-2.34,0.687-3.101C376.8,17.75,378.176,17.903,379.676,19.041z"/>
		<path fill-rule="evenodd" clip-rule="evenodd" fill="#F7941E" d="M362.673,38.808c0.197,0.234,0.663,0.749,1.092,1.294
			c7.685,9.782,15.367,19.567,23.044,29.355c0.429,0.545,0.874,1.098,1.188,1.711c0.685,1.333,0.309,2.511-0.8,3.417
			c-1.043,0.853-2.198,0.735-3.215-0.042c-0.634-0.486-1.168-1.127-1.667-1.761c-7.62-9.686-15.228-19.38-22.834-29.075
			c-0.429-0.547-0.905-1.081-1.217-1.693c-0.643-1.265-0.598-2.55,0.573-3.467C359.945,37.678,361.195,37.622,362.673,38.808z"/>
		<path fill-rule="evenodd" clip-rule="evenodd" fill="#F7941E" d="M312.383,105.981c4.643,4.472,8.711,8.391,12.764,12.294
			c-1.745,2.248-8.8,7.504-11.092,8.297c-2.737,0.947-5.271,0.66-7.404-1.435c-2.055-2.019-2.564-4.634-1.355-7.041
			C307.304,114.096,309.797,110.34,312.383,105.981z M309.769,123.069c1.721,1.173,4.106,0.776,5.294-0.884
			c1.253-1.751,0.72-4.382-1.12-5.523c-1.749-1.085-4.077-0.557-5.224,1.187C307.553,119.622,308.004,121.866,309.769,123.069z"/>
		<path fill-rule="evenodd" clip-rule="evenodd" fill="#F7941E" d="M375.565,32.07c0.954-1.108,1.739-2.022,2.832-3.293
			c6.41,8.151,12.538,15.942,18.678,23.751c-0.504,0.739-0.83,1.349-1.282,1.842c-0.377,0.41-0.903,0.681-1.712,1.266
			C387.91,47.781,381.801,40.006,375.565,32.07z"/>
		<path fill-rule="evenodd" clip-rule="evenodd" fill="#F7941E" d="M369.753,38.43c6.235,7.947,12.177,15.519,18.271,23.284
			c-0.991,1.027-1.833,1.899-2.984,3.092c-6.127-7.79-12.065-15.337-18.176-23.104C367.792,40.652,368.6,39.735,369.753,38.43z"/>
		<path fill-rule="evenodd" clip-rule="evenodd" fill="#F7941E" d="M378.934,70.808c-1.135,1.054-1.962,1.821-3.137,2.912
			c-5.897-7.49-11.671-14.826-17.596-22.353c0.91-1.082,1.684-2.003,2.802-3.333C367.089,55.764,372.879,63.119,378.934,70.808z"/>
		<path fill-rule="evenodd" clip-rule="evenodd" fill="#F7941E" d="M349.376,60.793c1.227-1.159,2.049-1.935,3.113-2.939
			c5.763,7.342,11.383,14.5,17.067,21.743c-0.587,0.749-0.961,1.326-1.436,1.803c-0.392,0.394-0.901,0.669-1.635,1.194
			C360.792,75.339,355.178,68.186,349.376,60.793z"/>
		<path fill-rule="evenodd" clip-rule="evenodd" fill="#F7941E" d="M311.846,102.306c0.847-1.12,1.381-1.827,2.161-2.857
			c6.162,5.931,12.128,11.671,18.29,17.603c-1.119,0.833-1.917,1.428-2.883,2.149C323.559,113.569,317.823,108.053,311.846,102.306z
			"/>
		<path fill-rule="evenodd" clip-rule="evenodd" fill="#F7941E" d="M388.95,28.409c1.253-1.227,2.151-2.108,3.364-3.296
			c3.554,3.392,7.022,6.701,10.711,10.219c-1.607,1.675-3.018,3.145-4.732,4.933C395.133,36.254,392.16,32.482,388.95,28.409z"/>
	</g>
	<g>
		<path fill-rule="evenodd" clip-rule="evenodd" fill="#F7941E" d="M361.208,119.86c6.339-2.875,12.387-5.62,18.881-8.565
			c6.851,15.125,13.618,30.067,20.594,45.467c-6.301,2.85-12.433,5.619-18.896,8.542
			C377.035,149.114,370.327,134.164,361.208,119.86z M381.155,145.152c4.144,0.411,7.646-2.448,8.04-6.563
			c0.393-4.056-2.591-7.729-6.592-8.117c-3.965-0.385-7.707,2.689-8.113,6.668C374.074,141.198,377.022,144.745,381.155,145.152z"/>
		<path fill-rule="evenodd" clip-rule="evenodd" fill="#F7941E" d="M344.342,173.953c-1.051,1.134-1.915,2.71-3.24,3.378
			c-4.48,2.267-9.089,4.299-13.721,6.247c-2.732,1.146-4.95,0.412-6.107-2.272c-1.464-3.393-3.592-6.088-6.272-8.596
			c-2.62-2.453-3.915-5.842-3.738-9.448c0.133-2.692-0.496-5.019-1.593-7.405c-2.074-4.521-1.416-6.209,2.999-8.266
			c3.856-1.797,7.724-3.568,11.624-5.271c3.749-1.637,5.771-0.932,7.489,2.76c1.207,2.59,2.562,4.871,4.867,6.773
			c3.332,2.748,4.969,6.655,4.733,10.98c-0.134,2.465,0.482,4.525,1.476,6.649C343.446,170.739,343.75,172.127,344.342,173.953z
			 M325.24,172.219c5.155,0.595,10.013-3.316,10.538-8.489c0.513-5.011-3.197-9.695-8.231-10.397
			c-5.106-0.715-10.037,3.1-10.708,8.279C316.178,166.721,320.059,171.619,325.24,172.219z M326.424,150.815
			c1.039-1.564,2.019-2.415,2.035-3.281c0.012-0.64-1.23-1.795-1.935-1.811c-0.695-0.016-1.974,1.098-1.989,1.74
			C324.514,148.328,325.458,149.215,326.424,150.815z M325.912,180.686c1.016-1.121,1.984-1.725,2.188-2.522
			c0.324-1.274-0.523-2.283-1.857-2.382c-1.349-0.1-2.322,0.799-2.177,2.103C324.156,178.704,325.048,179.434,325.912,180.686z
			 M314.62,156.165c1.108-1.605,2.078-2.414,2.113-3.26c0.025-0.648-1.092-1.836-1.765-1.885c-0.661-0.047-1.915,0.992-1.98,1.648
			C312.905,153.505,313.753,154.434,314.62,156.165z M337.393,175.543c1.141-1.336,2.195-2.039,2.301-2.865
			c0.084-0.639-0.893-1.83-1.627-2.065c-1.291-0.417-2.302,0.496-2.238,1.833C335.866,173.26,336.599,174.042,337.393,175.543z"/>
		<path fill-rule="evenodd" clip-rule="evenodd" fill="#F7941E" d="M343.111,164.977c-0.381-7.961-1.276-9.951-7.241-16.155
			c9.246-2.756,18.378-5.481,28.057-8.365c1.253,2.752,2.666,5.858,4.042,8.882C359.604,154.601,351.481,159.709,343.111,164.977z"
			/>
		<path fill-rule="evenodd" clip-rule="evenodd" fill="#F7941E" d="M412.063,151.571c-1.864,0.861-3.348,1.543-5.313,2.451
			c-6.854-15.141-13.611-30.061-20.562-45.408c1.719-0.802,3.279-1.53,5.296-2.475C398.328,121.241,405.086,136.167,412.063,151.571
			z"/>
		<path fill-rule="evenodd" clip-rule="evenodd" fill="#F7941E" d="M376.829,167.147c-5.132-15.908-11.849-30.785-20.413-45.015
			c1.132-0.485,1.926-0.824,2.854-1.218c0.665,0.943,1.297,1.741,1.819,2.604c7.568,12.523,13.613,25.74,17.921,39.734
			C379.841,165.952,379.786,165.971,376.829,167.147z"/>
		<path fill-rule="evenodd" clip-rule="evenodd" fill="#F7941E" d="M414.229,151.167c-3.253-7.166-6.121-13.475-8.979-19.787
			c-3.604-7.959-7.207-15.918-10.794-23.885c-0.503-1.118-1.453-2.438,1.076-2.898c0.318,0.541,0.747,1.134,1.043,1.787
			c6.151,13.576,12.292,27.157,18.431,40.74c0.264,0.585,0.737,1.208,0.679,1.768C415.625,149.461,415.026,149.978,414.229,151.167z
			"/>
		<path fill-rule="evenodd" clip-rule="evenodd" fill="#F7941E" d="M402.995,150.919c-2.227,1.375-2.592,0.042-3.06-0.979
			c-1.664-3.629-3.299-7.273-4.947-10.91c-3.397-7.51-6.807-15.017-10.193-22.532c-0.504-1.119-1.412-2.396,1.219-3.086
			C391.639,125.842,397.286,138.311,402.995,150.919z"/>
		<path fill-rule="evenodd" clip-rule="evenodd" fill="#F7941E" d="M381.155,145.152c-4.133-0.407-7.081-3.954-6.665-8.013
			c0.406-3.979,4.148-7.053,8.113-6.668c4.001,0.389,6.984,4.062,6.592,8.117C388.8,142.704,385.298,145.563,381.155,145.152z
			 M376.454,137.406c-0.273,3.106,2.066,5.839,5.135,6c2.889,0.151,5.486-2.121,5.749-5.029c0.288-3.138-1.969-5.73-5.157-5.925
			C379.153,132.268,376.72,134.371,376.454,137.406z"/>
		<path fill-rule="evenodd" clip-rule="evenodd" fill="#F7941E" d="M326.424,150.815c-0.966-1.6-1.91-2.487-1.889-3.352
			c0.016-0.643,1.294-1.756,1.989-1.74c0.704,0.016,1.946,1.171,1.935,1.811C328.443,148.4,327.463,149.25,326.424,150.815z"/>
		<path fill-rule="evenodd" clip-rule="evenodd" fill="#F7941E" d="M325.912,180.686c-0.863-1.252-1.756-1.982-1.846-2.802
			c-0.146-1.304,0.828-2.202,2.177-2.103c1.334,0.099,2.182,1.107,1.857,2.382C327.896,178.961,326.927,179.565,325.912,180.686z"/>
		<path fill-rule="evenodd" clip-rule="evenodd" fill="#F7941E" d="M314.62,156.165c-0.866-1.73-1.715-2.659-1.632-3.496
			c0.065-0.656,1.319-1.695,1.98-1.648c0.673,0.049,1.79,1.236,1.765,1.885C316.698,153.75,315.728,154.559,314.62,156.165z"/>
		<path fill-rule="evenodd" clip-rule="evenodd" fill="#F7941E" d="M337.393,175.543c-0.794-1.501-1.527-2.283-1.564-3.098
			c-0.063-1.337,0.947-2.25,2.238-1.833c0.734,0.235,1.711,1.427,1.627,2.065C339.588,173.504,338.534,174.208,337.393,175.543z"/>
	</g>
</g>
</svg>
